<svg id="Capa_1" data-name="Capa 1" xmlns="http://www.w3.org/2000/svg" viewBox="0 0 368 364.04"><defs><style>.cls-1{fill:#6cc7dc;}.cls-2{fill:#0057b8;}</style></defs><circle class="cls-1" cx="146.79" cy="341.85" r="19.84"/><path class="cls-1" d="M324.23,205.55a144.36,144.36,0,0,0,1.59-21.18,141,141,0,0,0-16.3-65.92q1.13,2.13,2.17,4.29c-17.2,8.2-47.35,14.53-83.83,17.39a39.41,39.41,0,0,0-28.15,15.4l-.18.23a19.92,19.92,0,0,1-26,4.53,19.42,19.42,0,0,1-5.19-4.66,39.88,39.88,0,0,0-28.23-15.5c-36.49-2.86-66.63-9.19-83.83-17.39.69-1.44,1.42-2.87,2.17-4.29a141.6,141.6,0,0,0-14.71,87.12c14.48-7.47,40.15-13.58,72.15-17.2a43.43,43.43,0,0,1,48.22,43.08v14a19.88,19.88,0,0,0,39.75,0v-14a43.37,43.37,0,0,1,43.35-43.39,44,44,0,0,1,4.87.28C284.08,192,309.75,198.08,324.23,205.55Z"/><path class="cls-2" d="M96.25,339.77a19.76,19.76,0,0,1-10.77-3.19,181.64,181.64,0,1,1,197,0,19.87,19.87,0,0,1-21.58-33.37A141.5,141.5,0,0,0,325.85,184c0-78.2-63.63-141.83-141.84-141.83S42.15,105.82,42.15,184a141.46,141.46,0,0,0,64.91,119.19,19.87,19.87,0,0,1-10.81,36.56Z"/></svg>